<?xml version="1.0" standalone="no"?>
<!DOCTYPE svg PUBLIC "-//W3C//DTD SVG 20010904//EN"
 "http://www.w3.org/TR/2001/REC-SVG-20010904/DTD/svg10.dtd">
<svg version="1.0" xmlns="http://www.w3.org/2000/svg"
 width="500.000000pt" height="500.000000pt" viewBox="0 0 500.000000 500.000000"
 preserveAspectRatio="xMidYMid meet">
<metadata>
Created by potrace 1.14, written by Peter Selinger 2001-2017
</metadata>
<g transform="translate(0.000000,500.000000) scale(0.100000,-0.100000)"
fill="#000000" stroke="none">
<path d="M2355 3771 c-110 -30 -168 -55 -242 -104 -127 -85 -238 -219 -289
-348 l-27 -69 -47 0 c-25 0 -54 -6 -63 -12 -25 -19 -40 -127 -33 -238 8 -109
22 -140 66 -140 40 0 80 -17 80 -34 0 -27 53 -140 96 -206 51 -78 148 -173
231 -227 34 -22 106 -55 160 -73 92 -32 107 -34 233 -34 140 0 174 6 290 51
202 80 365 257 435 471 15 44 21 52 42 52 33 0 50 44 58 151 7 84 -6 204 -24
222 -5 5 -23 12 -41 16 -27 5 -34 14 -57 71 -79 200 -261 368 -473 436 -115
37 -291 43 -395 15z m208 -59 c39 -43 91 -195 112 -329 l6 -41 -42 -7 c-54 -9
-174 -9 -229 0 l-42 7 7 46 c18 123 73 281 112 324 9 10 26 18 38 18 12 0 29
-8 38 -18z m-169 -39 c-36 -84 -42 -109 -80 -290 -4 -21 -5 -22 -45 -8 -58 21
-139 66 -139 78 0 45 151 205 225 238 55 25 58 24 39 -18z m318 11 c64 -33
208 -192 208 -231 0 -12 -81 -57 -139 -78 -40 -14 -41 -13 -45 8 -26 129 -51
221 -71 265 -14 30 -25 56 -25 59 0 6 39 -6 72 -23z m-554 -81 c-18 -21 -44
-55 -57 -76 l-24 -39 -20 21 c-21 20 -21 21 -1 42 22 25 114 89 128 89 4 0 -7
-17 -26 -37z m780 -7 c74 -55 79 -63 55 -88 -20 -20 -20 -20 -44 19 -13 21
-39 55 -57 76 -46 49 -28 47 46 -7z m-916 -139 l27 -22 -29 -85 -29 -85 -61
-3 c-68 -3 -70 0 -40 66 22 49 89 152 98 152 4 0 19 -10 34 -23z m1080 -31
c21 -30 42 -64 47 -77 5 -13 16 -40 24 -59 l15 -35 -64 5 -65 5 -29 85 -28 85
26 22 c15 12 29 22 32 23 3 0 22 -24 42 -54z m-901 -83 c69 -34 99 -53 99 -65
0 -16 -13 -18 -126 -18 -97 0 -125 3 -122 13 3 6 13 36 22 65 10 28 20 52 23
52 3 0 50 -21 104 -47z m774 -5 c9 -29 18 -59 20 -65 3 -10 -25 -13 -120 -13
-112 0 -125 2 -125 18 0 11 29 32 93 63 50 25 97 47 104 48 6 0 19 -23 28 -51z
m-476 -74 c2 -2 -28 -4 -67 -4 -45 0 -72 4 -72 11 0 7 22 8 68 4 37 -4 69 -9
71 -11z m191 6 c0 -6 -30 -9 -72 -8 -67 1 -69 2 -28 8 70 11 100 11 100 0z
m198 -46 l52 -7 0 -168 0 -169 -507 1 c-495 0 -715 7 -730 23 -11 10 -10 292
0 302 4 5 74 11 155 14 203 9 965 11 1030 4z m268 -45 c31 -29 38 -74 20 -124
-14 -40 -15 -40 -70 -43 -51 -3 -59 0 -86 27 -49 49 -37 124 25 160 28 16 83
6 111 -20z m94 -250 c0 -21 -27 -5 -57 33 -46 56 -29 73 19 19 21 -24 38 -47
38 -52z m-1250 -149 c10 -36 25 -83 34 -104 l17 -40 -29 -29 -29 -29 -45 69
c-45 69 -60 98 -84 166 l-13 38 66 -3 67 -3 16 -65z m999 54 c5 -5 -17 -90
-34 -131 l-14 -34 -43 27 c-24 15 -68 37 -98 50 -51 20 -55 25 -58 58 l-3 35
83 3 c78 3 158 -1 167 -8z m187 -22 c-20 -56 -64 -141 -99 -190 l-31 -43 -27
28 -27 28 30 95 c17 52 32 101 34 108 2 8 25 12 68 12 l65 0 -13 -38z m-888
-8 c-3 -33 -7 -38 -58 -58 -30 -13 -74 -35 -97 -49 -49 -31 -49 -31 -77 62
-25 86 -32 81 110 81 l125 0 -3 -36z m392 14 c0 -23 -1 -23 -165 -23 -164 0
-165 0 -165 23 0 22 1 22 165 22 164 0 165 0 165 -22z m-14 -90 c3 -3 0 -37
-7 -74 -28 -166 -95 -314 -142 -314 -13 0 -31 8 -40 18 -39 43 -93 201 -111
324 l-7 47 33 4 c42 6 267 2 274 -5z m-337 -152 c11 -54 32 -123 46 -154 14
-30 23 -57 21 -59 -2 -3 -25 5 -50 16 -56 24 -154 116 -198 184 l-32 50 27 21
c15 12 56 33 90 48 73 31 65 40 96 -106z m505 89 c81 -38 84 -46 46 -105 -41
-64 -135 -151 -195 -180 -25 -12 -48 -20 -51 -18 -2 3 7 29 21 59 20 45 45
136 71 266 5 25 11 24 108 -22z m-743 -122 c13 -21 42 -58 64 -82 l40 -45 -44
25 c-24 13 -62 40 -85 60 -41 37 -41 37 -22 58 11 12 20 21 22 21 1 0 13 -17
25 -37z m870 -43 c-24 -21 -62 -48 -85 -61 l-41 -23 40 45 c22 24 51 61 64 82
l24 39 21 -22 21 -22 -44 -38z"/>
<path d="M1766 3122 c-4 -7 49 -142 67 -170 13 -19 33 1 53 55 l18 46 25 -54
c14 -30 30 -54 36 -54 12 0 64 131 65 163 0 41 -28 24 -45 -28 -9 -27 -20 -50
-24 -50 -4 0 -14 19 -22 43 -9 23 -22 42 -30 42 -7 0 -25 -24 -39 -54 l-26
-54 -23 61 c-21 56 -41 76 -55 54z"/>
<path d="M2070 3118 c0 -24 66 -172 79 -176 7 -2 21 18 33 47 12 28 25 51 28
51 3 0 16 -23 28 -51 12 -30 26 -49 33 -47 14 5 74 176 65 185 -14 14 -35 -10
-52 -59 l-17 -53 -14 35 c-32 83 -47 87 -75 21 -11 -28 -23 -51 -27 -51 -3 0
-15 24 -26 52 -12 31 -28 54 -38 56 -9 2 -17 -3 -17 -10z"/>
<path d="M2376 3122 c-4 -7 49 -142 67 -170 13 -19 33 1 53 55 l18 46 25 -54
c14 -30 30 -54 36 -54 12 0 54 104 62 152 4 25 2 33 -10 33 -10 0 -22 -19 -32
-50 -9 -27 -20 -50 -24 -50 -4 0 -14 19 -22 43 -9 23 -22 42 -30 42 -7 0 -25
-24 -39 -53 l-25 -53 -24 61 c-22 54 -42 73 -55 52z"/>
<path d="M3039 3162 c-28 -23 -30 -73 -4 -102 26 -29 89 -27 109 2 51 73 -36
155 -105 100z"/>
<path d="M1862 2012 c-37 -31 -40 -42 -12 -42 26 0 120 47 120 60 0 22 -75 10
-108 -18z"/>
<path d="M2385 1954 c-5 -1 -22 -5 -37 -8 -36 -8 -97 -62 -114 -101 l-13 -30
-1 27 c-1 80 -45 110 -152 106 l-71 -3 -38 -175 c-21 -96 -38 -178 -39 -182 0
-14 68 -8 73 6 3 7 9 34 12 60 7 43 9 46 39 46 52 0 108 20 138 50 l28 28 0
-55 c0 -30 7 -70 16 -88 32 -67 127 -83 199 -33 97 66 128 264 51 327 -16 14
-74 29 -91 25z m-250 -88 c30 -45 -9 -96 -75 -96 -25 0 -30 4 -26 18 2 9 8 33
11 52 10 48 12 50 45 50 20 0 35 -8 45 -24z m282 16 c51 -32 25 -199 -36 -232
-63 -33 -108 8 -98 92 13 103 80 174 134 140z"/>
<path d="M2956 1949 c-27 -4 -49 -17 -68 -38 -50 -56 -32 -128 47 -177 51 -33
59 -47 44 -76 -10 -19 -18 -20 -80 -16 -69 5 -70 5 -84 -23 -15 -28 -15 -28
22 -38 116 -32 223 19 223 106 0 28 -8 43 -38 72 -21 20 -51 44 -66 54 -59 40
-5 92 73 71 37 -10 40 -9 56 18 9 16 15 32 12 34 -10 11 -105 19 -141 13z"/>
<path d="M835 1928 c-3 -13 -19 -88 -35 -168 -17 -80 -33 -153 -36 -162 -5
-17 6 -18 139 -18 l144 0 18 40 c18 39 19 40 71 40 l54 0 6 -40 c6 -37 9 -40
40 -40 19 0 34 3 34 8 0 4 -10 87 -22 185 l-22 177 -27 0 c-25 0 -35 -14 -111
-152 l-83 -152 -75 3 c-41 1 -76 4 -78 6 -3 2 38 207 55 273 5 20 1 22 -31 22
-29 0 -37 -4 -41 -22z m348 -150 l6 -58 -34 0 -34 0 27 59 c15 32 28 58 28 57
1 0 4 -27 7 -58z"/>
<path d="M1465 1928 c-3 -13 -19 -88 -35 -168 -17 -80 -33 -153 -36 -163 -5
-16 -1 -18 32 -15 l39 3 14 73 c7 39 16 72 20 72 18 -1 32 -21 54 -80 23 -62
25 -65 60 -68 21 -2 37 1 37 7 0 13 -36 109 -50 134 -8 13 -7 17 6 17 8 0 29
13 45 29 24 25 29 38 29 79 0 44 -4 54 -31 76 -27 23 -40 26 -105 26 -68 0
-74 -2 -79 -22z m126 -48 c45 -24 6 -100 -51 -100 -34 0 -37 11 -19 73 11 39
31 47 70 27z"/>
<path d="M1757 1943 c-5 -9 -77 -339 -77 -354 0 -5 47 -9 104 -9 99 0 104 1
110 23 12 45 9 47 -64 47 -51 0 -68 3 -66 13 3 6 7 24 10 40 6 26 9 27 66 27
63 0 64 1 74 43 l6 27 -64 0 -64 0 10 40 10 40 68 0 c62 0 68 2 74 23 12 46
11 47 -93 47 -55 0 -102 -3 -104 -7z"/>
<path d="M2575 1928 c-3 -13 -19 -88 -35 -168 -17 -80 -33 -153 -36 -162 -4
-15 1 -18 29 -18 l35 0 17 77 c9 42 20 97 24 122 6 40 8 43 14 20 3 -14 27
-69 51 -122 39 -84 49 -97 70 -97 29 0 25 -10 66 185 17 83 34 158 36 168 4
14 -1 17 -30 17 -34 0 -35 -1 -46 -57 -6 -32 -16 -74 -21 -93 -5 -19 -9 -48
-9 -65 -1 -27 -4 -24 -24 25 -72 169 -84 190 -110 190 -18 0 -27 -6 -31 -22z"/>
<path d="M3137 1943 c-5 -9 -77 -339 -77 -354 0 -5 47 -9 104 -9 99 0 104 1
110 23 12 45 9 47 -64 47 -51 0 -68 3 -66 13 3 6 7 24 10 40 6 26 9 27 66 27
63 0 64 1 74 43 l6 27 -64 0 -64 0 10 40 10 40 68 0 c62 0 68 2 74 23 12 46
11 47 -93 47 -55 0 -102 -3 -104 -7z"/>
<path d="M3485 1938 c-14 -47 -74 -352 -69 -357 3 -3 40 -6 82 -6 63 1 85 5
122 25 72 41 110 113 110 213 0 56 -21 97 -60 121 -35 20 -178 23 -185 4z
m154 -73 c21 -21 19 -110 -3 -153 -21 -40 -70 -72 -112 -72 l-32 0 24 113 c13
61 27 118 29 126 7 18 72 8 94 -14z"/>
<path d="M3785 1928 c-3 -13 -19 -88 -35 -168 -17 -80 -33 -153 -36 -163 -5
-16 3 -17 103 -15 l108 3 3 33 3 32 -67 0 -66 0 6 31 c3 17 6 35 6 40 0 5 29
9 64 9 58 0 64 2 70 23 12 44 9 47 -55 47 -59 0 -61 1 -55 23 3 12 6 30 6 39
0 14 12 18 72 20 67 3 73 5 79 28 4 14 7 22 8 18 55 -386 47 -348 79 -348 24
1 36 16 122 171 52 94 97 178 98 186 3 11 -5 14 -33 11 -37 -3 -38 -5 -100
-124 l-63 -121 -6 41 c-3 23 -8 68 -11 101 -12 116 4 105 -155 105 -137 0
-140 0 -145 -22z"/>
<path d="M1392 1397 c-48 -51 -37 -127 19 -127 35 0 69 16 69 32 0 6 -9 3 -19
-6 -11 -10 -30 -16 -43 -14 -33 4 -37 63 -8 101 25 31 46 34 72 10 17 -15 18
-15 18 4 0 16 -8 20 -43 21 -34 2 -48 -2 -65 -21z"/>
<path d="M1680 1405 c-7 -8 -8 -15 -2 -15 5 0 15 7 22 15 7 8 8 15 2 15 -5 0
-15 -7 -22 -15z"/>
<path d="M2015 1409 c-10 -15 3 -25 16 -12 7 7 7 13 1 17 -6 3 -14 1 -17 -5z"/>
<path d="M2500 1395 c0 -21 -5 -25 -30 -25 -23 0 -33 -7 -45 -30 -8 -16 -15
-36 -15 -45 0 -21 29 -31 51 -16 12 7 19 7 19 1 0 -5 6 -10 13 -10 9 0 18 23
25 64 15 81 15 86 -3 86 -9 0 -15 -9 -15 -25z m-10 -57 c0 -22 -26 -58 -42
-58 -11 0 -10 37 2 61 14 26 40 24 40 -3z"/>
<path d="M2895 1409 c-10 -15 3 -25 16 -12 7 7 7 13 1 17 -6 3 -14 1 -17 -5z"/>
<path d="M3552 1356 c-16 -85 -17 -82 28 -84 32 -2 42 2 55 22 26 39 16 70
-23 74 -29 3 -31 6 -26 28 4 17 2 24 -8 24 -10 0 -18 -20 -26 -64z m68 -24 c0
-30 -16 -52 -37 -52 -16 0 -17 52 -1 68 21 21 38 14 38 -16z"/>
<path d="M1910 1385 c-8 -9 -16 -39 -18 -66 -3 -47 -2 -49 22 -49 13 0 27 4
30 9 4 5 -4 7 -16 3 -18 -4 -20 -2 -15 19 4 13 7 32 7 42 0 9 8 17 18 17 10 0
13 3 6 8 -6 4 -13 13 -15 21 -4 10 -8 9 -19 -4z"/>
<path d="M2970 1385 c-8 -9 -16 -39 -18 -66 -3 -47 -2 -49 22 -49 13 0 27 4
30 9 4 5 -4 7 -16 3 -18 -4 -20 -2 -15 19 4 13 7 32 7 42 0 9 8 17 18 17 10 0
13 3 6 8 -6 4 -13 13 -15 21 -4 10 -8 9 -19 -4z"/>
<path d="M1526 1322 c-3 -25 -4 -47 -2 -50 9 -9 26 10 26 29 0 31 20 61 36 55
8 -3 14 -1 14 3 0 5 -15 9 -34 9 -32 0 -34 -2 -40 -46z"/>
<path d="M1643 1362 c-6 -4 -16 -19 -21 -33 -14 -34 2 -59 37 -59 28 0 60 25
48 37 -4 3 -2 12 4 19 26 32 -29 61 -68 36z m57 -16 c0 -14 -21 -26 -46 -26
-12 0 -12 4 -4 20 12 23 50 27 50 6z m0 -46 c0 -15 -27 -23 -47 -16 -15 6 -15
8 -3 16 20 13 50 12 50 0z"/>
<path d="M1755 1340 c-8 -16 -15 -36 -15 -45 0 -21 29 -31 51 -16 12 7 19 7
19 1 0 -5 7 -10 15 -10 8 0 15 8 15 19 0 10 3 33 6 50 6 31 6 31 -34 31 -36 0
-44 -4 -57 -30z m65 -2 c0 -22 -26 -58 -42 -58 -11 0 -10 37 2 61 14 26 40 24
40 -3z"/>
<path d="M1996 1339 c-9 -48 -7 -69 7 -69 6 0 13 11 13 25 1 14 5 36 8 50 5
18 2 25 -8 25 -7 0 -16 -14 -20 -31z"/>
<path d="M2076 1351 c-10 -11 -16 -31 -14 -48 3 -24 8 -28 36 -31 45 -4 74 22
70 62 -3 28 -7 31 -39 34 -25 2 -40 -3 -53 -17z m67 -3 c7 -19 -10 -58 -28
-65 -28 -10 -39 12 -25 46 13 31 44 42 53 19z"/>
<path d="M2210 1350 c0 -10 -3 -32 -6 -49 -7 -34 12 -45 22 -13 18 54 28 72
42 72 12 0 14 -9 9 -45 -5 -34 -3 -45 7 -45 14 0 31 74 21 90 -3 5 -26 9 -50
8 -36 0 -45 -4 -45 -18z"/>
<path d="M2564 1346 c-20 -31 -15 -70 9 -74 27 -5 67 7 67 20 0 9 -3 9 -12 0
-16 -16 -51 -16 -46 0 3 7 18 16 35 20 31 8 48 31 37 49 -3 5 -21 9 -39 9 -26
0 -39 -6 -51 -24z m64 -3 c-2 -10 -13 -19 -26 -21 -24 -4 -29 7 -10 26 18 18
40 15 36 -5z"/>
<path d="M2761 1352 c-11 -21 3 -42 26 -42 7 0 13 -7 13 -15 0 -18 -36 -20
-43 -2 -2 6 -8 9 -12 5 -22 -20 30 -37 69 -22 25 10 19 43 -10 54 -14 6 -22
14 -19 20 8 13 35 13 35 -1 0 -5 5 -7 10 -4 18 11 0 25 -30 25 -18 0 -33 -7
-39 -18z"/>
<path d="M2876 1339 c-3 -17 -6 -40 -6 -50 0 -24 26 -25 26 -1 0 9 4 32 8 50
6 25 4 32 -7 32 -8 0 -17 -13 -21 -31z"/>
<path d="M3056 1351 c-10 -11 -16 -31 -14 -48 2 -23 8 -29 34 -31 20 -2 35 3
44 15 12 15 12 16 0 6 -8 -7 -22 -13 -33 -13 -24 0 -17 24 9 29 27 5 44 21 44
42 0 26 -60 26 -84 0z m62 -8 c-2 -10 -13 -19 -26 -21 -24 -4 -25 -2 -16 22 9
23 46 21 42 -1z"/>
<path d="M3247 1363 c-2 -5 -5 -27 -6 -50 l-2 -42 56 0 c60 0 76 13 90 72 6
21 4 27 -9 27 -11 0 -16 -9 -16 -26 0 -30 -16 -64 -31 -64 -8 0 -9 15 -5 45 8
50 -9 65 -20 18 -12 -55 -16 -63 -30 -63 -16 0 -16 2 -5 53 7 28 6 37 -4 37
-8 0 -16 -3 -18 -7z"/>
<path d="M3426 1351 c-10 -11 -16 -31 -14 -48 2 -23 8 -29 34 -31 20 -2 35 3
44 15 12 15 12 16 0 6 -8 -7 -22 -13 -33 -13 -24 0 -17 24 9 29 27 5 44 21 44
42 0 26 -60 26 -84 0z m62 -8 c-2 -10 -13 -19 -26 -21 -24 -4 -25 -2 -16 22 9
23 46 21 42 -1z"/>
</g>
</svg>
